<svg width="171" height="198" viewBox="0 0 171 198" fill="none" xmlns="http://www.w3.org/2000/svg">
<path d="M81.9666 65.117C84.4971 69.7703 87.4473 74.8675 90.8173 80.4085L91.6155 81.7208C79.2033 103.352 70.2785 117.17 64.8411 123.174C64.1436 123.997 63.4303 124.631 62.7012 125.074C60.514 126.405 58.2453 125.138 55.8952 121.274C54.9197 119.67 54.1471 117.742 53.5775 115.492C53.0807 113.197 52.7776 110.236 52.668 106.607C52.587 102.861 53.2177 98.2325 54.5603 92.7218C55.9029 87.211 57.9302 81.184 60.6423 74.6406C61.1782 73.7153 61.1802 72.8153 60.6481 71.9404C60.2933 71.3571 59.8243 71.2429 59.2411 71.5976C59.0952 71.6863 58.8479 71.9366 58.4992 72.3484C51.6599 81.3021 46.3449 90.6271 42.5542 100.323C41.7995 101.382 41.8085 102.874 42.5811 104.802C45.9255 110.957 49.6153 117.353 53.6504 123.987C58.262 131.57 62.2419 137.539 65.5901 141.894C66.1952 142.725 66.9716 142.852 67.9194 142.276C68.5026 141.921 68.9972 141.42 69.4031 140.774C76.2078 130.942 85.6216 114.48 97.6445 91.3875L100.747 96.2423C101.323 97.1901 101.903 97.4866 102.487 97.1319C103.07 96.7771 103.403 96.1751 103.485 95.3258C103.597 94.3592 103.453 93.5478 103.054 92.8917L99.6616 87.3142L112.83 61.1779C114.133 58.887 115.587 57.2538 117.191 56.2783C118.284 55.6132 119.387 55.2919 120.5 55.3145C121.568 55.2642 122.403 55.4055 123.005 55.7385L123.908 56.238C124.672 56.6725 125.272 56.7567 125.709 56.4906C126.001 56.3132 126.19 56.0487 126.275 55.6969C126.317 55.2723 126.285 54.892 126.181 54.556L126.024 54.052C121.894 46.2765 117.368 38.3423 112.446 30.2495C108.367 23.542 104.903 18.2577 102.056 14.3965C101.391 13.3029 100.584 13.0443 99.6363 13.6208C99.4176 13.7538 99.0831 14.1071 98.6329 14.6805C94.0448 20.7669 90.7913 26.0915 88.8722 30.6545C88.7294 31.2407 88.791 31.7526 89.0571 32.19C89.4562 32.8462 90.1296 32.886 91.0774 32.3096C92.2409 31.1026 93.6247 30.0113 95.2287 29.0358C101.207 25.3997 106.014 26.5709 109.65 32.5493L109.916 32.9868C112.178 36.7051 112.776 39.987 111.71 42.8326C109.378 49.3444 104.483 59.1133 97.0241 72.1391C96.2281 73.622 95.2148 75.4867 93.9843 77.7332L84.0074 61.329C83.5639 60.5999 83.1235 60.3684 82.6861 60.6344C82.2486 60.9005 81.9378 61.539 81.7536 62.5499C81.5251 63.4879 81.5961 64.3436 81.9666 65.117Z" fill="black"/>
<path d="M100.68 127.456C95.9872 127.456 92.4458 126.304 90.0565 124C87.6672 121.696 86.4725 118.496 86.4725 114.4L86.7285 111.584C86.7285 110.901 86.5578 110.56 86.2165 110.56L85.4485 111.072C83.4005 114.485 81.2672 117.643 79.0485 120.544C76.8298 123.36 75.1232 125.365 73.9285 126.56L72.1365 128.224C70.9418 129.333 70.0458 129.888 69.4485 129.888C68.8512 129.888 68.5525 129.376 68.5525 128.352C68.5525 126.987 68.9792 125.323 69.8325 123.36C71.1125 120.544 72.9045 116.789 75.2085 112.096C77.4272 107.317 81.9072 98.912 88.6485 86.88C95.4752 74.7627 102.088 64.096 108.488 54.88C114.974 45.4933 120.008 39.0933 123.592 35.68C124.872 34.4 125.854 33.76 126.536 33.76C126.963 33.76 127.176 34.1013 127.176 34.784C127.176 34.9547 127.091 35.552 126.92 36.576C126.152 39.9893 123.123 46.2613 117.832 55.392C107.251 72.6293 99.5712 86.624 94.7925 97.376C91.6352 103.435 90.0565 109.024 90.0565 114.144C90.0565 117.045 90.8245 119.435 92.3605 121.312C93.8965 123.104 96.0298 124 98.7605 124C102.686 124 106.483 122.421 110.152 119.264C113.907 116.107 117.022 112.309 119.496 107.872C121.971 103.435 123.976 98.912 125.512 94.304C127.048 89.696 127.816 85.8133 127.816 82.656C127.816 75.0613 124.318 70.4533 117.32 68.832C117.235 68.4907 117.192 68.1493 117.192 67.808C117.192 66.784 117.79 66.1867 118.984 66.016C125.555 66.016 131.4 63.584 136.52 58.72C141.64 53.7707 144.2 48.096 144.2 41.696C144.2 38.112 142.878 34.9547 140.232 32.224C137.587 29.408 132.68 28 125.512 28C117.747 28 111.475 30.1333 106.696 34.4C101.918 38.6667 99.5285 43.5307 99.5285 48.992C99.5285 50.528 99.8272 51.936 100.424 53.216C100.766 53.8987 100.936 54.4533 100.936 54.88C100.936 55.392 100.68 55.648 100.168 55.648C99.7418 55.648 99.3578 55.5627 99.0165 55.392C98.4192 55.136 97.6938 54.7947 96.8405 54.368C95.9872 53.9413 94.8352 52.8747 93.3845 51.168C92.0192 49.4613 91.3365 47.584 91.3365 45.536C91.3365 39.904 94.7925 35.0827 101.704 31.072C108.616 26.976 116.979 24.928 126.792 24.928C127.816 24.928 128.968 24.9707 130.248 25.056C131.614 25.1413 133.79 25.5253 136.776 26.208C139.763 26.8907 142.366 27.8293 144.584 29.024C146.888 30.1333 148.936 31.9253 150.728 34.4C152.52 36.8747 153.416 39.776 153.416 43.104C153.416 46.6027 152.563 49.8453 150.856 52.832C149.235 55.7333 147.016 58.208 144.2 60.256C141.47 62.2187 138.568 63.84 135.496 65.12C132.51 66.4 129.395 67.3813 126.152 68.064C125.555 68.32 125.256 68.576 125.256 68.832C125.256 69.0027 125.512 69.216 126.024 69.472C126.28 69.6427 126.664 69.856 127.176 70.112C127.688 70.368 128.542 71.0507 129.736 72.16C131.016 73.2693 132.126 74.5067 133.064 75.872C134.088 77.152 134.984 78.944 135.752 81.248C136.52 83.552 136.904 85.984 136.904 88.544C136.904 98.3573 133.235 107.317 125.896 115.424C118.643 123.445 110.238 127.456 100.68 127.456Z" fill="black"/>
</svg>
